# xmcd
#
# Track frame offsets:
#	150
#	15296
#	33243
#	44366
#	59715
#	70783
#	82310
#	94936
#	107814
#	124349
#	143125
#	159130
#
# Disc length: 2493 seconds
#
# Revision: 4
# Processed by: cddbd v1.5.1PL2 Copyright (c) Steve Scherf et al.
# Submitted via: EasyCDDAExtractor 4.6.9.1
#
DISCID=a009bb0c
DTITLE=Serge Gainsbourg - Pop sessions
DYEAR=2001
DGENRE=Chanson
TTITLE0=Aux Armes et ceatera - Rachid Taha
TTITLE1=L'hippopodame - Rita Mitsouko
TTITLE2=Ballade de Melody Nelson - Miossec
TTITLE3=Requiem pour un c... - Zazie
TTITLE4=En relisant la lettre - Alain Chamfort
TTITLE5=Ces petits rien - Françoise Hardy
TTITLE6=Elisa - Faudel
TTITLE7=Mon amour baiser - Jane Birkin and Etienne Daho
TTITLE8=Initials B.B. - Menelik
TTITLE9=Guitar song - Texas
TTITLE10=Brigade des stups - Pierpoljak
TTITLE11=La Javanaise - Jane Birkin
EXTD=
EXTT0=
EXTT1=
EXTT2=
EXTT3=
EXTT4=
EXTT5=
EXTT6=
EXTT7=
EXTT8=
EXTT9=
EXTT10=
EXTT11=
PLAYORDER=
